<!-- icon666.com - MILLIONS vector ICONS FREE --><svg id="Layer_1" enable-background="new 0 0 480.133 480.133" viewBox="0 0 480.133 480.133" xmlns="http://www.w3.org/2000/svg"><circle cx="240.133" cy="240.064" fill="#b9dcff" r="232"></circle><path d="m34.133 256.064c0 28.943 5.3 56.649 14.982 82.198 3.875 10.226-10.886 16.684-15.848 6.94-15.752-30.933-24.77-65.871-25.123-102.881-1.236-129.704 102.941-234.619 232.653-234.256 10.962.031 11.844 16.068.949 17.271-110.877 12.249-207.613 104.281-207.613 230.728z" fill="#d1e7ff"></path><circle cx="240.133" cy="240.064" fill="#d1e7ff" r="190"></circle><path d="m69.296 323.309c-13.028-26.683-19.989-56.871-19.084-88.766 2.936-103.544 89.512-186.515 193.773-184.441 12.036.239 13.054 17.79 1.12 19.373-111.852 14.831-190.351 138.454-157.76 246.773 3.416 11.353-12.847 17.716-18.049 7.061z" fill="#e8f3ff"></path><path d="m284.653 305.864-15.24 43.44c-4.36 12.44-16.1 20.76-29.28 20.76-13.122 0-24.902-8.268-29.28-20.76l-72.72-207.24h44l57.35 163.46c7.47 21.29 37.47 21.4 45.17.34z" fill="#b9dcff"></path><g fill="#2e58ff"><path d="m409.838 70.359c-118.172-118.176-317.174-81.957-387.293 68.322-1.868 4.004-.137 8.764 3.867 10.632 4.005 1.869 8.765.137 10.633-3.867 36.672-78.596 116.389-129.382 203.088-129.382 123.514 0 224 100.486 224 224s-100.486 224-224 224c-144.803 0-251.817-135.574-217.758-276.716 1.037-4.295-1.604-8.617-5.899-9.653-4.294-1.035-8.617 1.604-9.653 5.9-36.538 151.4 78.333 296.469 233.311 296.469 133.423 0 240-108.21 240-240-.001-64.106-24.965-124.375-70.296-169.705z" fill="#2e58ff" style="fill: rgb(154, 6, 234);"></path><path d="m419.219 304.188c4.219 1.313 8.702-1.044 10.015-5.264 39.621-127.434-55.578-256.86-189.101-256.86-109.178 0-198 88.822-198 198s88.822 198 198 198c71.812 0 135.188-38.345 169.953-96.358 2.271-3.79 1.04-8.703-2.75-10.975-3.791-2.271-8.704-1.04-10.975 2.75-32.743 54.64-92.606 88.583-156.229 88.583-100.355 0-182-81.645-182-182s81.645-182 182-182c122.661 0 210.255 118.933 173.821 236.11-1.31 4.219 1.048 8.703 5.266 10.014z" fill="#2e58ff" style="fill: rgb(154, 6, 234);"></path><path d="m231.938 308.17c1.463 4.17 6.03 6.362 10.197 4.9 4.169-1.463 6.363-6.028 4.9-10.198l-57.354-163.458c-1.125-3.206-4.151-5.351-7.549-5.351h-44c-5.492 0-9.378 5.432-7.549 10.649l72.716 207.24c5.479 15.618 20.282 26.111 36.833 26.111s31.354-10.493 36.833-26.111l72.716-207.24c1.463-4.169-.731-8.735-4.9-10.198-4.167-1.462-8.734.731-10.197 4.9l-72.716 207.241c-3.233 9.216-11.969 15.408-21.735 15.408s-18.502-6.192-21.735-15.408l-68.979-196.592h27.044z" fill="#2e58ff" style="fill: rgb(154, 6, 234);"></path></g></svg>