<?xml version="1.0" ?>
<!DOCTYPE svg  PUBLIC '-//W3C//DTD SVG 1.1//EN'  'http://www.w3.org/Graphics/SVG/1.1/DTD/svg11.dtd'>
<!-- Uploaded to: SVG Repo, www.svgrepo.com, Generator: SVG Repo Mixer Tools -->
<svg width="800px" height="800px" viewBox="0 0 32 32" id="_x3C_Layer_x3E_" version="1.1" xml:space="preserve" xmlns="http://www.w3.org/2000/svg" xmlns:xlink="http://www.w3.org/1999/xlink">
<style type="text/css">
<![CDATA[
	.st0{fill:#E3F2FD;}
	.st1{fill:#80D8FF;}
	.st2{fill:#1AD2A4;}
	.st3{fill:#ECEFF1;}
	.st4{fill:#55FB9B;}
	.st5{fill:#BBDEFB;}
	.st6{fill:#C1AEE1;}
	.st7{fill:#FF5252;}
	.st8{fill:#FF8A80;}
	.st9{fill:#FFB74D;}
	.st10{fill:#FFF176;}
	.st11{fill:#FFFFFF;}
	.st12{fill:#65C7EA;}
	.st13{fill:#CFD8DC;}
	.st14{fill:#37474F;}
	.st15{fill:#78909C;}
	.st16{fill:#42A5F5;}
	.st17{fill:#455A64;}
]]>
</style>
<g id="Litecoin_LTC_1_">
<g id="XMLID_111_">
<g id="XMLID_188_">
<circle class="st15" cx="16" cy="16" id="XMLID_67_" r="14.5"/>
</g>
<g id="XMLID_110_">
<polygon class="st11" id="XMLID_70_" points="16.5,15.12 16.5,20.5 23,20.5 23,24 11.5,24 11.5,18.18 10.32,18.9 9.05,16.75      11.5,15.25 11.5,7 16.5,7 16.5,12.2 19.05,10.64 20.32,12.79    "/>
</g>
</g>
<g id="XMLID_109_">
<g id="XMLID_108_">
<path class="st17" d="M9.34,17.07c-0.17,0-0.33-0.08-0.43-0.24c-0.14-0.24-0.07-0.54,0.17-0.69L11,14.97V7     c0-0.28,0.22-0.5,0.5-0.5h5C16.78,6.5,17,6.72,17,7v5.2c0,0.28-0.22,0.5-0.5,0.5S16,12.48,16,12.2V7.5h-4v7.75     c0,0.17-0.09,0.34-0.24,0.43L9.6,17C9.52,17.05,9.43,17.07,9.34,17.07z" id="XMLID_701_"/>
</g>
<g id="XMLID_57_">
<path class="st17" d="M23,24.5H11.5c-0.28,0-0.5-0.22-0.5-0.5v-5.82c0-0.28,0.22-0.5,0.5-0.5s0.5,0.22,0.5,0.5     v5.32h10.5V21h-6c-0.28,0-0.5-0.22-0.5-0.5v-5.38c0-0.17,0.09-0.34,0.24-0.43l3.51-2.14c0.23-0.14,0.54-0.07,0.69,0.17     c0.14,0.24,0.07,0.54-0.17,0.69l-3.27,2V20h6c0.28,0,0.5,0.22,0.5,0.5V24C23.5,24.28,23.28,24.5,23,24.5z" id="XMLID_700_"/>
</g>
<g id="XMLID_183_">
<path class="st17" d="M16,31C7.73,31,1,24.27,1,16S7.73,1,16,1s15,6.73,15,15S24.27,31,16,31z M16,2     C8.28,2,2,8.28,2,16s6.28,14,14,14s14-6.28,14-14S23.72,2,16,2z" id="XMLID_697_"/>
</g>
</g>
</g>
</svg>