<!-- icon666.com - MILLIONS vector ICONS FREE --><svg viewBox="-7 0 423 423.25333" xmlns="http://www.w3.org/2000/svg"><path d="m402.898438 218.453125c0 109.335937-88.632813 197.972656-197.972657 197.972656-109.335937 0-197.972656-88.636719-197.972656-197.972656s88.636719-197.972656 197.972656-197.972656c109.339844 0 197.972657 88.636719 197.972657 197.972656zm0 0" fill="#0e65e5"></path><path d="m204.925781 423.253906c-112.925781 0-204.800781-91.875-204.800781-204.800781s91.875-204.800781 204.800781-204.800781 204.800781 91.875 204.800781 204.800781-91.875 204.800781-204.800781 204.800781zm0-395.945312c-105.398437 0-191.144531 85.746094-191.144531 191.144531 0 105.402344 85.746094 191.148437 191.144531 191.148437 105.402344 0 191.148438-85.746093 191.148438-191.148437 0-105.398437-85.746094-191.144531-191.148438-191.144531zm0 0" fill="#0e65e5"></path><path d="m402.898438 204.800781c0 109.335938-88.632813 197.972657-197.972657 197.972657-109.335937 0-197.972656-88.636719-197.972656-197.972657 0-109.339843 88.636719-197.972656 197.972656-197.972656 109.339844 0 197.972657 88.632813 197.972657 197.972656zm0 0" fill="#2a8ee6"></path><path d="m204.925781 409.601562c-112.925781 0-204.800781-91.875-204.800781-204.800781s91.875-204.800781 204.800781-204.800781 204.800781 91.875 204.800781 204.800781-91.875 204.800781-204.800781 204.800781zm0-395.949218c-105.398437 0-191.144531 85.746094-191.144531 191.148437 0 105.398438 85.746094 191.144531 191.144531 191.144531 105.402344 0 191.148438-85.746093 191.148438-191.144531 0-105.402343-85.746094-191.148437-191.148438-191.148437zm0 0" fill="#0e65e5"></path><path d="m382.421875 204.800781c0 98.027344-79.46875 177.492188-177.496094 177.492188-98.027343 0-177.492187-79.464844-177.492187-177.492188 0-98.027343 79.464844-177.492187 177.492187-177.492187 98.027344 0 177.496094 79.464844 177.496094 177.492187zm0 0" fill="#d7e9ff"></path><path d="m204.925781 389.121094c-101.632812 0-184.320312-82.6875-184.320312-184.320313 0-101.632812 82.6875-184.320312 184.320312-184.320312 101.632813 0 184.320313 82.6875 184.320313 184.320312 0 101.632813-82.6875 184.320313-184.320313 184.320313zm0-354.988282c-94.105469 0-170.664062 76.558594-170.664062 170.667969 0 94.105469 76.558593 170.664063 170.664062 170.664063 94.109375 0 170.667969-76.558594 170.667969-170.664063 0-94.109375-76.558594-170.667969-170.667969-170.667969zm0 0" fill="#0e65e5"></path><path d="m165.238281 363.578125c-.570312 0-1.148437-.070313-1.726562-.21875-24.917969-6.492187-48.300781-19.03125-67.609375-36.257813-2.8125-2.507812-3.058594-6.828124-.546875-9.640624 2.5-2.808594 6.816406-3.058594 9.632812-.546876 17.703125 15.792969 39.132813 27.285157 61.964844 33.234376 3.652344.953124 5.835937 4.679687 4.886719 8.328124-.800782 3.070313-3.570313 5.101563-6.601563 5.101563zm0 0" fill="#fff"></path><path d="m298 239.824219c-3.9375-3.328125-8.121094-5.984375-12.445312-8.019531-11.230469-5.277344-19.082032-15.773438-19.503907-28.175782l-.085937-2.492187c-.371094-11.011719 4.707031-21.578125 13.753906-27.863281 9.820312-6.824219 17.589844-17.019532 21.378906-29.964844 6.125-20.894532-1.308594-44.101563-18.441406-57.535156-28.03125-21.976563-67.390625-12.246094-82.765625 17.789062-4.152344 8.113281-6.078125 16.773438-6.007813 25.296875.09375 11.210937-5.316406 21.738281-14.628906 27.980469l-1.945312 1.304687c-9.449219 6.332031-21.410156 6.800781-31.734375 2.019531-4.457031-2.0625-9.371094-3.578124-14.765625-4.386718-20.308594-3.046875-41.230469 5.632812-52.945313 22.5-20.597656 29.65625-7.785156 70.175781 25.890625 82.699218 23.457032 8.722657 50.703125-.261718 64.402344-21.210937 6.472656-9.894531 9.320312-20.90625 9.003906-31.644531-.3125-10.589844 5.214844-20.5 14.015625-26.398438l4.667969-3.128906c8.234375-5.523438 18.820312-6.136719 27.636719-1.605469l.28125.140625c8.832031 4.507813 14.523437 13.449219 14.863281 23.363282l.445312 13.144531c.324219 9.566406-3.460937 19.046875-10.9375 25.027343-7.910156 6.328126-14.21875 14.996094-17.761718 25.679688-7.625 23.019531 1.472656 49.039062 21.722656 62.378906 30.585938 20.152344 71.980469 5.59375 82.730469-30.285156 6.078125-20.304688-.632813-42.925781-16.824219-56.613281zm0 0" fill="#94c1ff"></path><path d="m262.253906 342.71875c-11.859375 0-23.578125-3.480469-33.914062-10.292969-22.691406-14.945312-32.972656-44.480469-24.445313-70.226562 3.792969-11.464844 10.699219-21.445313 19.980469-28.867188 5.507812-4.40625 8.632812-11.679687 8.371094-19.457031l-.445313-13.148438c-.253906-7.425781-4.519531-14.132812-11.140625-17.511718-6.914062-3.554688-14.847656-3.089844-21.019531 1.050781l-4.664063 3.136719c-7.015624 4.699218-11.226562 12.5625-10.992187 20.523437.375 12.585938-3.125 24.894531-10.113281 35.574219-15.496094 23.695312-45.992188 33.707031-72.5 23.878906-18.0625-6.71875-31.707032-21.039062-37.4375-39.304687-5.722656-18.261719-2.691406-37.828125 8.324218-53.6875 13.105469-18.875 36.480469-28.8125 59.5625-25.359375 5.8125.875 11.40625 2.53125 16.621094 4.941406 8.464844 3.925781 17.828125 3.367188 25.066406-1.492188l1.945313-1.300781c7.347656-4.929687 11.683594-13.242187 11.601563-22.253906-.070313-9.835937 2.261718-19.671875 6.753906-28.460937 8.402344-16.398438 23.539062-28.074219 41.546875-32.027344 17.980469-3.964844 36.769531.40625 51.515625 11.96875 19.347656 15.164062 27.699218 41.21875 20.785156 64.832031-4.078125 13.914063-12.390625 25.554687-24.03125 33.644531-7.085938 4.921875-11.132812 13.15625-10.835938 22.027344l.089844 2.488281c.320313 9.347657 6.285156 17.867188 15.585938 22.230469 4.945312 2.328125 9.640625 5.355469 13.945312 8.988281 18.167969 15.355469 25.789063 40.996094 18.953125 63.789063-5.714843 19.078125-19.578125 33.863281-38.039062 40.578125-6.890625 2.5-14.003907 3.738281-21.070313 3.738281zm-51.226562-175.566406c5.324218 0 10.664062 1.246094 15.574218 3.765625 11.304688 5.769531 18.425782 16.960937 18.839844 29.347656l.445313 13.140625c.414062 12.066406-4.625 23.5-13.484375 30.59375-7.210938 5.757812-12.582032 13.539062-15.546875 22.492188-6.621094 19.988281 1.367187 42.917968 18.992187 54.535156 12.859375 8.464844 28.472656 10.332031 42.8125 5.117187 14.359375-5.21875 25.152344-16.757812 29.621094-31.667969 5.296875-17.664062-.605469-37.53125-14.6875-49.4375-3.386719-2.863281-7.074219-5.234374-10.945312-7.054687-13.953126-6.566406-22.925782-19.640625-23.414063-34.121094l-.085937-2.484375c-.460938-13.535156 5.773437-26.132812 16.679687-33.714844 9.050781-6.292968 15.527344-15.378906 18.71875-26.273437 5.359375-18.300781-1.113281-38.492187-16.105469-50.246094-11.515625-9.035156-26.128906-12.460937-40.160156-9.378906-14.007812 3.078125-25.789062 12.160156-32.320312 24.914063-3.496094 6.839843-5.316407 14.484374-5.253907 22.125.117188 13.613281-6.480469 26.21875-17.65625 33.707031l-1.941406 1.300781c-11.230469 7.535156-25.582031 8.496094-38.40625 2.546875-4.03125-1.859375-8.375-3.152344-12.90625-3.828125-17.980469-2.699219-36.167969 5.007812-46.328125 19.640625-8.589844 12.367187-10.964844 27.613281-6.507812 41.820313 4.453124 14.199218 15.085937 25.355468 29.167968 30.585937 20.597656 7.660156 44.277344-.144531 56.3125-18.550781 5.453125-8.335938 8.183594-17.914063 7.894532-27.699219-.375-12.609375 6.152343-24.972656 17.035156-32.273437l4.667968-3.125c5.714844-3.835938 12.339844-5.777344 18.988282-5.777344zm0 0" fill="#0e65e5"></path><g fill="#fff"><path d="m129.832031 116.054688c-3.769531 0-6.824219-3.054688-6.824219-6.828126v-27.304687c0-3.773437 3.054688-6.828125 6.824219-6.828125s6.828125 3.054688 6.828125 6.828125v27.304687c0 3.773438-3.058594 6.828126-6.828125 6.828126zm0 0"></path><path d="m143.488281 102.398438h-27.308593c-3.769532 0-6.828126-3.050782-6.828126-6.824219 0-3.773438 3.058594-6.828125 6.828126-6.828125h27.308593c3.769531 0 6.824219 3.054687 6.824219 6.828125 0 3.773437-3.054688 6.824219-6.824219 6.824219zm0 0"></path></g></svg>